<?xml version="1.0" standalone="no"?>
<!DOCTYPE svg PUBLIC "-//W3C//DTD SVG 20010904//EN"
 "http://www.w3.org/TR/2001/REC-SVG-20010904/DTD/svg10.dtd">
<svg version="1.0" xmlns="http://www.w3.org/2000/svg"
 width="210px" height="70px" viewBox="0 0 302.000000 91.000000"
 preserveAspectRatio="xMidYMid meet">

<g transform="translate(0.000000,91.000000) scale(0.100000,-0.100000)"
fill="#e00" stroke="none">
<path d="M0 455 l0 -455 1510 0 1510 0 0 455 0 455 -1510 0 -1510 0 0 -455z
m878 3 l-3 -423 -410 0 -410 0 -3 423 -2 422 415 0 415 0 -2 -422z m322 97 l0
-125 265 0 265 0 0 119 c0 66 4 122 9 125 5 4 16 3 25 0 14 -5 16 -33 16 -210
l0 -204 -25 0 c-24 0 -25 3 -25 60 l0 60 -265 0 -265 0 0 -60 0 -60 -30 0 -30
0 0 210 0 210 30 0 30 0 0 -125z m1240 -116 l0 -161 -26 5 c-15 3 -42 -2 -61
-9 -64 -27 -151 20 -169 92 -24 96 81 187 172 149 20 -8 38 -15 40 -15 2 0 4
23 4 50 0 43 3 50 20 50 19 0 20 -7 20 -161z m-391 68 c27 -13 55 -56 65 -99
l6 -28 -110 0 -111 0 15 -29 c24 -46 84 -56 129 -21 22 17 26 18 37 5 16 -19
2 -37 -46 -60 -81 -38 -174 25 -174 120 0 104 93 158 189 112z m663 9 c21 -7
49 -11 63 -9 l25 5 0 -117 0 -117 -25 5 c-14 2 -43 -2 -64 -9 -60 -20 -129 5
-156 56 -35 69 -9 150 58 181 49 22 51 22 99 5z"/>
<path d="M180 440 l0 -280 69 0 c69 0 69 0 76 30 19 85 129 138 202 97 32 -18
73 -77 73 -104 0 -22 4 -23 70 -23 l70 0 0 34 c0 80 -69 175 -160 221 -58 30
-159 34 -217 10 -19 -8 -37 -15 -39 -15 -2 0 -3 29 -3 64 1 75 -25 143 -74
194 -70 74 -67 85 -67 -228z"/>
<path d="M2254 456 c-21 -18 -28 -32 -28 -61 0 -90 130 -117 164 -34 36 86
-65 156 -136 95z"/>
<path d="M1930 460 c-33 -33 -24 -40 55 -40 59 0 75 3 75 14 0 43 -95 61 -130
26z"/>
<path d="M2624 468 c-23 -11 -44 -48 -44 -78 0 -10 12 -32 26 -49 52 -62 149
-25 147 55 -2 66 -67 102 -129 72z"/>
</g>
</svg>
